<?xml version="1.0" encoding="utf-8" ?>
<svg baseProfile="tiny" height="100%" version="1.2" viewBox="-310,-22,1132,348" width="100%" xmlns="http://www.w3.org/2000/svg" xmlns:ev="http://www.w3.org/2001/xml-events" xmlns:xlink="http://www.w3.org/1999/xlink"><defs /><g transform="translate(-160,176)"><g><g><text fill="black" font-family="Arial" font-size="24.0px" text-anchor="start" x="8" y="-40.8">M1</text></g></g><line stroke="black" stroke-linecap="round" stroke-width="3.0" x1="64" x2="64" y1="-32" y2="-48" /><line stroke="black" stroke-linecap="round" stroke-width="3.0" x1="24" x2="24" y1="32" y2="-32" /><line stroke="black" stroke-linecap="round" stroke-width="3.0" x1="64" x2="32" y1="-32" y2="-32" /><line stroke="black" stroke-linecap="round" stroke-width="3.0" x1="64" x2="64" y1="48" y2="32" /><line stroke="black" stroke-linecap="round" stroke-width="3.0" x1="64" x2="64" y1="-48" y2="-48" /><line stroke="black" stroke-linecap="round" stroke-width="3.0" x1="32" x2="32" y1="32" y2="-32" /><line stroke="black" stroke-linecap="round" stroke-width="3.0" x1="48" x2="64" y1="28" y2="32" /><line stroke="black" stroke-linecap="round" stroke-width="3.0" x1="48" x2="48" y1="36" y2="28" /><line stroke="black" stroke-linecap="round" stroke-width="3.0" x1="64" x2="48" y1="32" y2="36" /><line stroke="black" stroke-linecap="round" stroke-width="3.0" x1="32" x2="48" y1="32" y2="32" /><line stroke="black" stroke-linecap="round" stroke-width="3.0" x1="64" x2="64" y1="64" y2="48" /><line stroke="black" stroke-linecap="round" stroke-width="3.0" x1="64" x2="64" y1="64" y2="48" /><line stroke="black" stroke-linecap="round" stroke-width="3.0" x1="0" x2="24" y1="0" y2="0" /><line stroke="black" stroke-linecap="round" stroke-width="3.0" x1="64" x2="64" y1="-64" y2="-48" /></g><g transform="translate(-16,176)"><g><g><text fill="black" font-family="Arial" font-size="24.0px" text-anchor="start" x="8" y="-40.8">M2</text></g></g><line stroke="black" stroke-linecap="round" stroke-width="3.0" x1="64" x2="64" y1="-32" y2="-48" /><line stroke="black" stroke-linecap="round" stroke-width="3.0" x1="24" x2="24" y1="32" y2="-32" /><line stroke="black" stroke-linecap="round" stroke-width="3.0" x1="64" x2="32" y1="-32" y2="-32" /><line stroke="black" stroke-linecap="round" stroke-width="3.0" x1="64" x2="64" y1="48" y2="32" /><line stroke="black" stroke-linecap="round" stroke-width="3.0" x1="64" x2="64" y1="-48" y2="-48" /><line stroke="black" stroke-linecap="round" stroke-width="3.0" x1="32" x2="32" y1="32" y2="-32" /><line stroke="black" stroke-linecap="round" stroke-width="3.0" x1="48" x2="64" y1="28" y2="32" /><line stroke="black" stroke-linecap="round" stroke-width="3.0" x1="48" x2="48" y1="36" y2="28" /><line stroke="black" stroke-linecap="round" stroke-width="3.0" x1="64" x2="48" y1="32" y2="36" /><line stroke="black" stroke-linecap="round" stroke-width="3.0" x1="32" x2="48" y1="32" y2="32" /><line stroke="black" stroke-linecap="round" stroke-width="3.0" x1="64" x2="64" y1="64" y2="48" /><line stroke="black" stroke-linecap="round" stroke-width="3.0" x1="64" x2="64" y1="64" y2="48" /><line stroke="black" stroke-linecap="round" stroke-width="3.0" x1="0" x2="24" y1="0" y2="0" /><line stroke="black" stroke-linecap="round" stroke-width="3.0" x1="64" x2="64" y1="-64" y2="-48" /><line stroke="black" stroke-linecap="round" stroke-width="3.0" x1="80" x2="48" y1="16" y2="16" /></g><g transform="translate(256,176)"><g><g><text fill="black" font-family="Arial" font-size="24.0px" text-anchor="start" x="8" y="55.2">M3</text></g></g><line stroke="black" stroke-linecap="round" stroke-width="3.0" x1="64" x2="64" y1="-32" y2="-48" /><line stroke="black" stroke-linecap="round" stroke-width="3.0" x1="24" x2="24" y1="32" y2="-32" /><line stroke="black" stroke-linecap="round" stroke-width="3.0" x1="64" x2="32" y1="32" y2="32" /><line stroke="black" stroke-linecap="round" stroke-width="3.0" x1="64" x2="64" y1="48" y2="32" /><line stroke="black" stroke-linecap="round" stroke-width="3.0" x1="64" x2="64" y1="-48" y2="-48" /><line stroke="black" stroke-linecap="round" stroke-width="3.0" x1="32" x2="32" y1="32" y2="-32" /><line stroke="black" stroke-linecap="round" stroke-width="3.0" x1="48" x2="32" y1="-28" y2="-32" /><line stroke="black" stroke-linecap="round" stroke-width="3.0" x1="48" x2="48" y1="-36" y2="-28" /><line stroke="black" stroke-linecap="round" stroke-width="3.0" x1="32" x2="48" y1="-32" y2="-36" /><line stroke="black" stroke-linecap="round" stroke-width="3.0" x1="64" x2="48" y1="-32" y2="-32" /><line stroke="black" stroke-linecap="round" stroke-width="3.0" x1="64" x2="64" y1="64" y2="48" /><line stroke="black" stroke-linecap="round" stroke-width="3.0" x1="64" x2="64" y1="64" y2="48" /><line stroke="black" stroke-linecap="round" stroke-width="3.0" x1="0" x2="24" y1="0" y2="0" /><line stroke="black" stroke-linecap="round" stroke-width="3.0" x1="64" x2="64" y1="-64" y2="-48" /></g><g transform="translate(432,176)"><g><g><text fill="black" font-family="Arial" font-size="24.0px" text-anchor="start" x="8" y="55.2">M4</text></g></g><line stroke="black" stroke-linecap="round" stroke-width="3.0" x1="64" x2="64" y1="-32" y2="-48" /><line stroke="black" stroke-linecap="round" stroke-width="3.0" x1="24" x2="24" y1="32" y2="-32" /><line stroke="black" stroke-linecap="round" stroke-width="3.0" x1="64" x2="32" y1="32" y2="32" /><line stroke="black" stroke-linecap="round" stroke-width="3.0" x1="64" x2="64" y1="48" y2="32" /><line stroke="black" stroke-linecap="round" stroke-width="3.0" x1="64" x2="64" y1="-48" y2="-48" /><line stroke="black" stroke-linecap="round" stroke-width="3.0" x1="32" x2="32" y1="32" y2="-32" /><line stroke="black" stroke-linecap="round" stroke-width="3.0" x1="48" x2="32" y1="-28" y2="-32" /><line stroke="black" stroke-linecap="round" stroke-width="3.0" x1="48" x2="48" y1="-36" y2="-28" /><line stroke="black" stroke-linecap="round" stroke-width="3.0" x1="32" x2="48" y1="-32" y2="-36" /><line stroke="black" stroke-linecap="round" stroke-width="3.0" x1="64" x2="48" y1="-32" y2="-32" /><line stroke="black" stroke-linecap="round" stroke-width="3.0" x1="64" x2="64" y1="64" y2="48" /><line stroke="black" stroke-linecap="round" stroke-width="3.0" x1="64" x2="64" y1="64" y2="48" /><line stroke="black" stroke-linecap="round" stroke-width="3.0" x1="0" x2="24" y1="0" y2="0" /><line stroke="black" stroke-linecap="round" stroke-width="3.0" x1="64" x2="64" y1="-64" y2="-48" /><line stroke="black" stroke-linecap="round" stroke-width="3.0" x1="80" x2="48" y1="-16" y2="-16" /></g><g transform="translate(672,128)"><g><g><text fill="black" font-family="Arial" font-size="24.0px" text-anchor="start" x="48" y="23.2">U1</text></g></g><line stroke="black" stroke-linecap="round" stroke-width="3.0" x1="16" x2="16" y1="88" y2="96" /><line stroke="black" stroke-linecap="round" stroke-width="3.0" x1="0" x2="16" y1="80" y2="88" /><line stroke="black" stroke-linecap="round" stroke-width="3.0" x1="32" x2="0" y1="64" y2="80" /><line stroke="black" stroke-linecap="round" stroke-width="3.0" x1="0" x2="32" y1="48" y2="64" /><line stroke="black" stroke-linecap="round" stroke-width="3.0" x1="32" x2="0" y1="32" y2="48" /><line stroke="black" stroke-linecap="round" stroke-width="3.0" x1="16" x2="16" y1="16" y2="24" /><line stroke="black" stroke-linecap="round" stroke-width="3.0" x1="16" x2="32" y1="24" y2="32" /><line stroke="black" stroke-linecap="round" stroke-width="3.0" x1="40" x2="64" y1="64" y2="64" /><line stroke="black" stroke-linecap="round" stroke-width="3.0" x1="40" x2="48" y1="64" y2="56" /><line stroke="black" stroke-linecap="round" stroke-width="3.0" x1="40" x2="48" y1="64" y2="72" /></g></svg>